<?xml version="1.0" encoding="UTF-8"?><svg id="uuid-5c4fd80c-5059-4a69-a2de-a00762e57d84" xmlns="http://www.w3.org/2000/svg" viewBox="0 0 1125 395"><defs><style>.uuid-54fb8edb-3721-4bac-8fcf-d3c1ab15e42e{fill:#fff;}.uuid-9caa1c0c-c082-4a82-b849-204bb6c8e0c1{stroke:#fff;stroke-width:3px;}.uuid-9caa1c0c-c082-4a82-b849-204bb6c8e0c1,.uuid-fb0149f5-b678-4f5d-90dd-000295e08d7b{fill:none;}.uuid-9caa1c0c-c082-4a82-b849-204bb6c8e0c1,.uuid-295d4744-3ed8-46db-aad4-858b03e2c67b,.uuid-517726f1-3ee0-46e7-953b-b2fbc6079da7{stroke-miterlimit:10;}.uuid-b36a1e2d-0944-4648-ae65-e5e6f49bd85d,.uuid-295d4744-3ed8-46db-aad4-858b03e2c67b{fill:#c5ad81;}.uuid-fb0149f5-b678-4f5d-90dd-000295e08d7b{stroke-linecap:round;stroke-linejoin:round;}.uuid-fb0149f5-b678-4f5d-90dd-000295e08d7b,.uuid-295d4744-3ed8-46db-aad4-858b03e2c67b,.uuid-517726f1-3ee0-46e7-953b-b2fbc6079da7{stroke:#c5ad81;stroke-width:5px;}</style></defs><rect class="uuid-54fb8edb-3721-4bac-8fcf-d3c1ab15e42e" y="52" width="1125" height="343"/><g><path class="uuid-fb0149f5-b678-4f5d-90dd-000295e08d7b" d="M914.91,108.19c-16.55-.18-28.5,25.38-36.12,41.68-10.29,22.02-15.89,33.99-11.11,44.46,12.37,27.1,84.7,26.63,97.25,2.78,3.49-6.64,2.83-16.01,2.78-16.67-.77-9.63-5.21-13.24-13.89-27.79-11.95-20.01-10.09-24.4-19.45-33.15-6.44-6.01-12.03-11.23-19.45-11.31Z"/><path class="uuid-fb0149f5-b678-4f5d-90dd-000295e08d7b" d="M934.36,119.5s25.01-22.43,38.9-19.65c0,0,8.34,52.79-19.45,52.79"/><path class="uuid-fb0149f5-b678-4f5d-90dd-000295e08d7b" d="M897.89,117.36s-30.58-17.51-42.9-9.17c-12.32,8.34,2.88,45.66,20.29,49.23"/><path class="uuid-fb0149f5-b678-4f5d-90dd-000295e08d7b" d="M854.99,115.17s17.05,4.13,22.6,20.8"/><path class="uuid-517726f1-3ee0-46e7-953b-b2fbc6079da7" d="M901.02,149.87s-5.56,0-5.56,5.56,4.23,6.08,4.23,6.08c0,0,6.54,0,5.32-5.82-1.22-5.82-3.99-5.82-3.99-5.82"/><path class="uuid-517726f1-3ee0-46e7-953b-b2fbc6079da7" d="M934.01,148.66s-5.41,1.29-4.12,6.69,5.52,4.94,5.52,4.94c0,0,6.36-1.52,3.83-6.9-2.53-5.38-5.23-4.74-5.23-4.74"/><circle class="uuid-9caa1c0c-c082-4a82-b849-204bb6c8e0c1" cx="937.14" cy="152.65" r="1.39"/><circle class="uuid-9caa1c0c-c082-4a82-b849-204bb6c8e0c1" cx="901.02" cy="152.65" r="1.39"/><path class="uuid-295d4744-3ed8-46db-aad4-858b03e2c67b" d="M921.86,165.15c-5.44-.93-13.98,9.69-11.11,16.67,1.19,2.9,4.5,5.57,8.34,5.56,5.35-.01,8.16-5.23,8.34-5.56,3.32-6.39-.92-15.88-5.56-16.67Z"/><path class="uuid-fb0149f5-b678-4f5d-90dd-000295e08d7b" d="M901.65,187.38s-2.02,8.34,6.32,8.34,11.11-8.34,11.11-8.34h0c1.84,4.12,5.67,6.88,9.73,6.95,5.42,.09,10.6-4.62,11.11-11.11"/><path class="uuid-fb0149f5-b678-4f5d-90dd-000295e08d7b" d="M956.67,134.86s-1.95-17.43,11.82-28.36"/><path class="uuid-fb0149f5-b678-4f5d-90dd-000295e08d7b" d="M885.18,209.79c-8.08,11.22-10.9,42.97-11.11,75.02-.06,9.43,3.91,28.97,5.56,36.12"/><path class="uuid-fb0149f5-b678-4f5d-90dd-000295e08d7b" d="M949.09,209.79c7.19,12.38,14.51,36.11,11.11,69.47-.97,9.53-8.66,34.6-11.11,41.68"/><path class="uuid-fb0149f5-b678-4f5d-90dd-000295e08d7b" d="M949.09,320.93c8.85,3.54,11.24,6.27,11.11,8.34-.37,5.89-21.7,13.05-30.56,5.56-6.25-5.28-1.65-13.93-8.34-19.45-7.1-5.85-18.69-3.69-22.23,2.78-2.75,5.04-.16,9.8-2.78,13.89-4.82,7.53-30.11,2.58-30.56-2.78-.17-2.03,3.16-4.72,13.89-8.34"/><path class="uuid-fb0149f5-b678-4f5d-90dd-000295e08d7b" d="M893.51,226.46c-2.69,2.96-13.06,15.07-11.11,30.56,.32,2.52,2.02,16.06,11.11,19.45,.73,.27,5.09,1.82,8.34,0,6.46-3.62,6.19-19.31,0-38.9"/><path class="uuid-fb0149f5-b678-4f5d-90dd-000295e08d7b" d="M940.75,226.46c4.47,6.03,16.82,24.26,11.11,41.68-.34,1.03-3.73,11.12-8.34,11.11-5.58,0-9.79-14.81-11.11-19.45-2.25-7.89-2.74-14.75-2.78-19.45"/><g><path d="M178.42,185.5h-11.75v-41.75h5.4v37h7.35c3.75,0,6.6-.7,8.3-2.2v-35.05h5.25v17.75h5.6v-18.05h5.3v45.35h-5.3v-22.55h-5.6v22h-5.25v-5c-1.75,1.65-5,2.5-9.3,2.5Z"/><path d="M231.21,153.8v-5h-16.6v-4.8h22v9.15c0,17.3-6.6,28.75-22.25,32.75v-5.15c11.65-3.35,16.85-12.75,16.85-26.95Zm18.85-10.6v18.5h7.1v4.75h-7.1v22.1h-5.45v-45.35h5.45Z"/><path d="M276.06,153.8c0-3.7,1.55-6.55,4.05-8.5,2.05-1.55,4.75-2.4,7.8-2.4s5.8,.85,7.9,2.4c2.45,1.95,4,4.8,4,8.5s-1.55,6.65-4,8.5c-2.1,1.55-4.8,2.4-7.9,2.4s-5.75-.85-7.8-2.4c-2.5-1.85-4.05-4.8-4.05-8.5Zm8.5,26.85v3.95h28.6v4.4h-34v-12.65h28v-4.05h-28v-4.35h33.45v12.7h-28.05Zm-3.2-26.85c0,2.1,.8,3.75,2.05,4.9,1.15,.95,2.7,1.55,4.5,1.55s3.45-.6,4.55-1.55c1.25-1.15,2.05-2.8,2.05-4.9s-.8-3.7-2.05-4.8c-1.1-1-2.7-1.55-4.55-1.55s-3.35,.55-4.5,1.55c-1.25,1.1-2.05,2.75-2.05,4.8Zm31.25-10.6v8.5h6.6v4.8h-6.6v8.75h-5.45v-22.05h5.45Z"/><path d="M323.96,186.55v-4.7h13.5v-21.2h5.45v21.2h21.3v4.7h-40.25Zm32.45-25.7v-12.05h-30.4v-4.8h35.85v15.75c0,5.15-.4,10.7-1.2,14.65h-5.35c.7-3.8,1.1-9.1,1.1-13.55Z"/><path d="M372.56,154.9c0-4.2,1.35-7.4,3.8-9.45,2.05-1.65,4.85-2.55,8.1-2.55s6.05,.9,8.1,2.55c2.45,2.05,3.8,5.25,3.8,9.45s-1.35,7.35-3.8,9.4c-2.05,1.7-4.8,2.55-8.1,2.55s-6.05-.85-8.1-2.55c-2.45-2.05-3.8-5.25-3.8-9.4Zm20.45,34.15c-3.2-1.2-6.6-4-8.25-6.9-1.9,3-6.3,5.85-10.85,6.9v-4.75c4.65-1.6,8.05-5.4,8.05-11.5v-1.6h5.45v1.6c0,5.25,2.45,9.05,5.6,11.15,3.1-2.1,5.7-5.9,5.7-11.15v-1.6h5.4v1.6c0,6.1,3.3,9.85,8.05,11.5v4.75c-4.6-1.05-9-3.85-10.9-6.9-1.6,2.9-4.85,5.6-8.25,6.9Zm-15.15-34.15c0,2.5,.75,4.45,2.1,5.7,1.15,1,2.65,1.6,4.5,1.6s3.4-.6,4.5-1.6c1.35-1.25,2.1-3.2,2.1-5.7s-.75-4.45-2.1-5.7c-1.1-1.05-2.65-1.6-4.5-1.6s-3.35,.55-4.5,1.6c-1.35,1.25-2.1,3.2-2.1,5.7Zm31.95,13.6h-5.45v-25.3h5.45v25.3Z"/><path d="M419.66,170.05v-4.7h40.85v4.7h-40.85Zm8.4-26.55v11.1h29.75v4.7h-35.15v-15.8h5.4Zm0,30.8v9.75h30.3v4.7h-35.7v-14.45h5.4Z"/><path d="M183.22,213.8v-5h-16.6v-4.8h22v9.15c0,17.3-6.6,28.75-22.25,32.75v-5.15c11.65-3.35,16.85-12.75,16.85-26.95Zm18.85-10.6v18.5h7.1v4.75h-7.1v22.1h-5.45v-45.35h5.45Z"/><path d="M214.01,208.45v-4.7h23.45v4.7h-9v1.7c0,7.7,4.15,11.35,9.8,12.6v4.8c-5.4-.95-10.05-3.8-12.4-7.65-2.4,3.9-7.1,7.35-12.65,8.25v-4.85c5.8-1.25,9.8-5.3,9.8-13.15v-1.7h-9Zm2,31.5c0-2.75,1.3-4.85,3.35-6.4,3.25-2.3,8.35-3.25,14.25-3.25s11,.95,14.2,3.25c2.05,1.55,3.35,3.65,3.35,6.4s-1.3,4.9-3.35,6.45c-3.2,2.3-8.35,3.2-14.2,3.2s-11-.9-14.25-3.2c-2.05-1.55-3.35-3.65-3.35-6.45Zm5.45,0c0,1.25,.65,2.3,1.85,3.1,2,1.35,5.65,1.9,10.3,1.9s8.25-.55,10.35-1.9c1.15-.8,1.75-1.85,1.75-3.1s-.6-2.3-1.75-3.1c-2.1-1.3-5.75-1.9-10.35-1.9s-8.3,.6-10.3,1.9c-1.2,.8-1.85,1.85-1.85,3.1Zm28.6-36.75v10.2h6.6v4.75h-6.6v10.9h-5.45v-25.85h5.45Z"/><path d="M299.26,226.7h-22.1v-22.95h22.1v9.1h9.1v-9.65h5.45v28.4h-5.45v-14.05h-9.1v9.15Zm-3.1,14.5c-3.45,3.95-9.9,7.1-18.4,7.85v-4.65c9.35-1.2,15.75-5.45,15.75-11.45v-1.85h5.4v1.85c0,6,6.3,10.25,15.7,11.45v4.65c-8.55-.75-14.9-3.9-18.45-7.85Zm-2.2-19.1v-13.65h-11.5v13.65h11.5Z"/><path d="M325.16,208.45v-4.7h23.4v4.7h-9v4.05c0,7.75,4.2,11.3,9.85,12.6v4.8c-5.45-.95-10.1-3.8-12.45-7.65-2.35,3.9-7.1,7.35-12.6,8.2v-4.8c5.75-1.25,9.8-5.3,9.8-13.15v-4.05h-9Zm37.45,40.3h-34.7v-15.4h5.45v10.7h29.25v4.7Zm-.8-13.8h-5.45v-31.75h5.45v31.75Z"/><path d="M386.21,224.75v-4.5h40.85v4.5h-40.85Zm32.45-13.4v-3h-29.75v-4.6h35.2v7.4c0,2.5-.3,4.85-.75,6.8h-5.3c.4-2,.6-4.25,.6-6.6Zm-24.05,29.65v3.6h30.5v4.4h-35.9v-12.35h29.45v-3.55h-29.45v-4.35h34.9v12.25h-29.5Z"/><path d="M434.21,225.5v-4.5h40.85v4.5h-40.85Zm2.15-15.1c0-1.9,.75-3.35,2.2-4.45,2.8-2.05,8.2-2.8,16.15-2.8s13.35,.75,16.1,2.8c1.45,1.1,2.2,2.55,2.2,4.45s-.75,3.3-2.2,4.4c-2.75,2.05-8.1,2.8-16.1,2.8s-13.35-.75-16.15-2.8c-1.45-1.1-2.2-2.55-2.2-4.4Zm6.25,30.9v3.3h30.5v4.4h-35.9v-12.05h29.45v-3.35h-29.45v-4.4h34.9v12.1h-29.5Zm-.8-30.9c0,.55,.3,1.05,.9,1.5,1.6,.95,5.6,1.3,12,1.3s10.4-.35,12-1.3c.6-.45,.9-.95,.9-1.5,0-.6-.3-1.1-.9-1.5-1.6-1-5.6-1.35-12-1.35s-10.4,.35-12,1.35c-.6,.4-.9,.9-.9,1.5Z"/><path d="M496.76,227.6v-4.7h13.8v-9.25h5.45v9.25h21.6v4.7h-40.85Zm2.15,13.4c0-3,1.55-5.05,4.1-6.45,3.35-1.8,8.4-2.5,14.25-2.5s10.9,.7,14.25,2.5c2.55,1.4,4.05,3.45,4.05,6.45s-1.5,5.05-4.05,6.4c-3.35,1.8-8.45,2.45-14.25,2.45s-10.9-.65-14.25-2.45c-2.55-1.35-4.1-3.4-4.1-6.4Zm30.3-28.4v-4.1h-29.75v-4.75h35.2v8.6c0,2.6-.3,5.4-.75,7.4h-5.35c.45-2,.65-4.75,.65-7.15Zm-24.85,28.4c0,1.1,.6,1.95,1.7,2.6,2.1,1.25,5.95,1.7,11.2,1.7s9.05-.45,11.15-1.7c1.1-.65,1.75-1.5,1.75-2.6s-.65-2-1.75-2.65c-2.1-1.2-5.95-1.7-11.15-1.7s-9.1,.5-11.2,1.7c-1.1,.65-1.7,1.5-1.7,2.65Z"/><path d="M545.06,236.9v-4.75h40.25v4.75h-8.65v12.15h-5.35v-12.15h-12.05v12.15h-5.35v-12.15h-8.85Zm1.35-21.9c0-3.9,1.8-7.1,4.8-8.9,3.5-2.2,8.05-2.9,14.05-2.9s10.5,.7,14.05,2.9c2.95,1.8,4.75,5,4.75,8.9s-1.8,7.05-4.75,8.85c-3.55,2.2-8.1,2.9-14.05,2.9s-10.55-.7-14.05-2.9c-3-1.8-4.8-4.95-4.8-8.85Zm5.45,0c0,2,.8,3.8,2.35,4.85,2.15,1.55,5.75,2.15,11.05,2.15s8.85-.6,11-2.15c1.6-1.05,2.4-2.85,2.4-4.85,0-2.1-.8-3.8-2.4-4.95-2.15-1.55-5.75-2.05-11-2.05s-8.9,.5-11.05,2.05c-1.55,1.15-2.35,2.85-2.35,4.95Z"/><path d="M612.96,213.1h-19.65v-4.7h7.2v-6.5h5.5v6.5h6.95v4.7Zm-18.7,18.3c0-6.65,1.25-11.25,4.1-13.45,1.25-1.05,2.9-1.6,4.95-1.6s3.7,.6,5.05,1.7c2.75,2.25,4.05,6.8,4.05,13.35s-1.3,11.25-4.2,13.45c-1.25,1-2.9,1.5-4.9,1.5s-3.6-.5-4.85-1.45c-2.95-2.2-4.2-6.75-4.2-13.5Zm5.2,0c0,5.2,.65,8.25,1.95,9.6,.5,.5,1.15,.8,1.9,.8,.7,0,1.35-.25,1.9-.7,1.3-1.3,1.95-4.4,1.95-9.7s-.6-8.3-1.85-9.6c-.55-.55-1.25-.8-2-.8-.85,0-1.55,.3-2.15,1-1.1,1.45-1.7,4.4-1.7,9.4Zm32.05,17.15h-5.2v-22.55h-4.55v22h-5.05v-44.5h5.05v17.75h4.55v-18.05h5.2v45.35Z"/><path d="M648.86,213h24.65v-9h5.45v27.45h-14.95v10.4h17.3v4.7h-40.25v-4.7h17.55v-10.4h-15.2v-27.45h5.45v9Zm24.65,13.7v-8.95h-24.65v8.95h24.65Z"/><path d="M698.26,235.75c-1.8,4-5.6,7.65-10.2,9.75v-5.05c4.55-2.75,7.5-7.35,7.5-17.4v-19.3h5.35v19.3c0,10.1,2.95,14.6,7.55,17.45v5c-4.6-2.05-8.35-5.8-10.2-9.75Zm19.25,12.25h-5.3v-23.6h-6.85v-4.7h6.85v-16.2h5.3v44.5Zm10,.55h-5.3v-45.35h5.3v45.35Z"/><path d="M738.41,217.05c0-4.15,1.65-7.35,4.45-9.6,3.35-2.7,8.35-3.95,14.35-3.95s11.05,1.25,14.4,3.95c2.75,2.25,4.45,5.45,4.45,9.6s-1.7,7.4-4.45,9.65c-.95,.75-2.05,1.4-3.25,1.95v13.2h8.95v4.7h-40.25v-4.7h9.25v-13.1c-1.3-.55-2.45-1.25-3.45-2.05-2.8-2.25-4.45-5.4-4.45-9.65Zm5.45,0c0,2.65,1,4.6,2.8,6.05,2.35,1.95,6.05,2.8,10.55,2.8s8.25-.85,10.6-2.8c1.8-1.45,2.8-3.4,2.8-6.05s-1-4.55-2.8-6.05c-2.35-1.9-6.1-2.75-10.6-2.75s-8.2,.85-10.55,2.75c-1.8,1.5-2.8,3.5-2.8,6.05Zm19.05,13.15c-1.75,.3-3.65,.45-5.7,.45s-3.8-.15-5.5-.4v11.6h11.2v-11.65Z"/><path d="M806.41,245.55h-5.7v-5.85h5.7v5.85Zm-.05-32.35l-.55,21.5h-4.5l-.55-21.5v-6.85h5.6v6.85Z"/></g><rect class="uuid-b36a1e2d-0944-4648-ae65-e5e6f49bd85d" x="165.55" y="276.34" width="201" height="42" rx="12" ry="12"/><g><path class="uuid-54fb8edb-3721-4bac-8fcf-d3c1ab15e42e" d="M236.89,309.11h-10.5v-24.9h13.02v2.88h-9.78v19.17h7.41c2.01,0,3.9-.15,5.25-.63v2.7c-1.35,.54-3.3,.78-5.4,.78Zm.12-11.7v-2.82h7.83v-10.86h3.27v27.21h-3.27v-13.53h-7.83Z"/><path class="uuid-54fb8edb-3721-4bac-8fcf-d3c1ab15e42e" d="M258.94,289.61h14.79v-5.4h3.27v16.47h-8.97v6.24h10.38v2.82h-24.15v-2.82h10.53v-6.24h-9.12v-16.47h3.27v5.4Zm14.79,8.22v-5.37h-14.79v5.37h14.79Z"/><path class="uuid-54fb8edb-3721-4bac-8fcf-d3c1ab15e42e" d="M293.83,290.09v-3h-9.84v-2.88h13.05v5.49c0,10.35-3.84,17.25-13.23,19.65v-3.09c6.9-2.01,10.02-7.68,10.02-16.17Zm11.88-6.36v27.21h-3.27v-27.21h3.27Z"/></g></g></svg>